<?xml version="1.0" encoding="UTF-8"?>
<svg width="512px" height="512px" viewBox="0 0 512 512" version="1.1" xmlns="http://www.w3.org/2000/svg" xmlns:xlink="http://www.w3.org/1999/xlink">
    <!-- Generator: Sketch 55.2 (78181) - https://sketchapp.com -->
    <title>Artboard</title>
    <desc>Created with Sketch.</desc>
    <g id="Artboard" stroke="none" stroke-width="1" fill="none" fill-rule="evenodd">
        <g id="lytx_logo" transform="translate(-5.505376, 110.107527)" fill-rule="nonzero">
            <g id="Group" fill="#15145F">
                <path d="M231.672337,82.4717224 C231.672337,82.4717224 205.558606,82.4693204 204.388296,82.4693204 C202.33306,82.4693204 201.402568,83.8215652 200.829404,85.1762115 C200.577595,85.7694698 154.383942,197.090662 154.383942,197.090662 C153.532591,199.060184 152.417439,199.048174 151.599661,197.064242 C151.599661,197.064242 105.885644,86.5933064 105.31248,85.2386596 C104.739316,83.8840133 103.808824,82.529367 101.753587,82.529367 C100.583278,82.529367 74.4695472,82.5341704 74.4695472,82.5341704 C72.3279767,82.5413764 71.0521471,84.0137133 71.6349038,85.8078995 C71.6349038,85.8078995 113.240847,186.79631 133.908322,236.565155 C135.268087,239.836482 135.203337,242.423281 133.877146,245.648972 C127.821753,260.372346 117.344125,286.278758 117.344125,286.278758 C116.540736,288.267494 117.634305,289.895952 119.775875,289.895952 L146.769736,289.895952 C149.203884,289.895952 150.578038,288.673407 151.355047,286.94167 C152.945037,283.394129 234.506979,85.7478529 234.506979,85.7478529 C235.089736,83.9536673 233.813907,82.4789278 231.672337,82.4717224" id="Fill-1"></path>
                <path d="M57.7909573,216.029292 L48.2198397,216.029292 C39.5408432,216.029292 35.6486048,212.731544 35.6486048,202.838302 L35.6486048,4.88699034 C35.6486048,3.08800068 34.4519153,1.88947485 32.655682,1.88947485 L7.13909677,1.88947485 C5.34286348,1.88947485 4.146174,3.08800068 4.146174,4.88699034 L4.146174,204.637292 C4.146174,232.518029 15.5207194,246.00925 43.6561121,246.00925 L57.7909573,246.00925 C59.5871904,246.00925 60.7838803,244.808323 60.7838803,243.009333 L60.7838803,219.026807 C60.7838803,217.227818 59.5871904,216.029292 57.7909573,216.029292" id="Fill-3"></path>
                <path d="M289.50913,112.048169 C289.53551,110.878466 290.487586,109.936938 291.662692,109.936938 L329.134181,109.956153 C330.930414,109.956153 332.127103,108.755226 332.127103,106.953834 L332.127103,85.5725177 C332.127103,83.7711261 330.930414,82.5677967 329.134181,82.5677967 L291.55957,82.5677967 C290.422835,82.5077501 289.516324,81.5734283 289.516324,80.4181361 L289.50913,38.7267306 C289.50913,36.9277409 288.312441,35.7292151 286.516207,35.7292151 L261.126725,35.7292151 C259.330492,35.7292151 258.131404,36.9277409 258.131404,38.7267306 L258.131404,199.389238 C258.131404,205.461128 258.601447,210.937358 259.589495,215.822732 C263.663995,235.943074 276.602151,246.006848 302.365748,246.00925 L302.368146,246.00925 L329.079022,246.006848 C330.875256,246.006848 332.071945,244.805921 332.071945,243.006931 L332.071945,218.762603 C332.071945,216.963614 330.875256,215.762686 329.079022,215.762686 L306.766399,215.762686 C300.490375,215.762686 296.044158,214.453675 293.432545,211.83325 C290.816135,209.220032 289.50913,203.325879 289.50913,194.157997 L289.50913,112.048169 Z" id="Fill-5"></path>
                <path d="M516.424237,242.79797 C516.424237,242.79797 402.738737,85.2098373 402.717154,85.181015 C401.762679,83.855191 400.446081,82.529367 398.393243,82.529367 C397.220536,82.529367 366.562263,82.5341704 366.562263,82.5341704 C364.42309,82.5413764 363.564543,83.9824896 364.653315,85.7406475 L413.53772,153.249597 C414.525769,154.621056 414.753595,157.608964 413.34107,159.686568 C412.909398,160.320658 353.192435,242.79797 353.192435,242.79797 C352.101265,244.556128 352.959812,245.997241 355.101383,246.004447 C355.101383,246.004447 386.428747,246.00925 386.929966,246.00925 C388.985202,246.00925 390.299402,244.683426 391.256274,243.357602 C391.258672,243.352798 391.263468,243.345593 391.270663,243.335986 C391.709529,242.848409 432.190728,186.60176 433.022895,185.444066 C433.545697,184.872424 434.166824,184.56979 434.799942,184.56979 C435.435459,184.56979 436.049392,184.870022 436.536221,185.408038 C438.869646,188.650543 477.976691,242.980511 478.470715,243.506517 C479.417994,244.781902 480.708213,246.00925 482.684309,246.00925 L511.80775,246.00925 C511.843722,246.00925 511.877297,246.006848 511.913269,246.004447 L514.51529,246.004447 C516.654462,245.997241 517.515407,244.556128 516.424237,242.79797" id="Fill-7"></path>
            </g>
            <path d="M503.052491,82.5334503 C503.052491,82.5334503 472.394219,82.5310483 471.223909,82.5310483 C469.168672,82.5310483 467.854473,83.8544703 466.897601,85.1826963 C466.70095,85.4565079 439.366548,123.343374 439.366548,123.343374 C438.275378,125.099131 439.133925,126.542646 441.275496,126.549851 C441.275496,126.549851 472.518924,126.552253 473.020142,126.552253 C475.075378,126.552253 476.389579,125.228831 477.34645,123.900605 C477.348849,123.895801 504.961439,85.7399268 504.961439,85.7399268 C506.052609,83.9841709 505.191663,82.5406558 503.052491,82.5334503" id="Fill-9" fill="#009ADA"></path>
        </g>
    </g>
</svg>